/* XPM */
static char * plan_down_xpm[] = {
"16 16 66 1",
" 	c None",
".	c #FEFFFE",
"+	c #FDFFFD",
"@	c #B2E3B2",
"#	c #83CD83",
"$	c #F8FDF8",
"%	c #B4E5B4",
"&	c #148E14",
"*	c #048404",
"=	c #74C674",
"-	c #FCFFFC",
";	c #BCE9BC",
">	c #0F8B0F",
",	c #008000",
"'	c #038303",
")	c #78C878",
"!	c #F5FFF5",
"~	c #0E8B0E",
"{	c #73C573",
"]	c #E2F8E2",
"^	c #53C753",
"/	c #EDFAED",
"(	c #B8E5B8",
"_	c #76C676",
":	c #3AAC3A",
"<	c #179717",
"[	c #EBF9EB",
"}	c #B7E5B7",
"|	c #138E13",
"1	c #6EC16E",
"2	c #38AB38",
"3	c #088808",
"4	c #E6F4E6",
"5	c #B3E5B3",
"6	c #018101",
"7	c #E4F1E4",
"8	c #BBE9BB",
"9	c #0E8A0E",
"0	c #D6F1D6",
"a	c #B3E4B3",
"b	c #C5F1C5",
"c	c #B1E3B1",
"d	c #BEF1BE",
"e	c #A2DEA2",
"f	c #058505",
"g	c #AEF1AE",
"h	c #ABEEAB",
"i	c #90D790",
"j	c #AEEBAE",
"k	c #6EC46E",
"l	c #57AC57",
"m	c #48AA48",
"n	c #3CAA3C",
"o	c #2DAA2D",
"p	c #21A021",
"q	c #149414",
"r	c #8DD48D",
"s	c #FBFFFB",
"t	c #F6FFF6",
"u	c #F2FFF2",
"v	c #EEFBEE",
"w	c #E9F8E9",
"x	c #E3F1E3",
"y	c #CEF1CE",
"z	c #BFF1BF",
"A	c #D5FAD5",
"     .+         ",
"    .@#$        ",
"    %&*=-       ",
"   ;>,,')-    !-",
" .%~,,,,'{$  ]^/",
" (&,,,,,,*_$]:<[",
" }|,,,,,,,*12,34",
" .5~,,,,,,,6,,,7",
"   89,,,,,,,,,,0",
"    a|,,,,,,,,,b",
"    .c|,,,,,,,,d",
"     .ef,,,,,,,g",
"     ]2,,,,,,,,h",
"    ]:,,,,,,,,,i",
"    jklmnopq,,,r",
"       stuvwxyzA"};
