/* XPM */
static char * plan_disabled_xpm[] = {
"16 16 15 1",
" 	c None",
".	c #FFD5D5",
"+	c #FFE5E5",
"@	c #FFD3D3",
"#	c #D61616",
"$	c #E72727",
"%	c #C00000",
"&	c #FFD6D6",
"*	c #FFECEC",
"=	c #F03030",
"-	c #FFEAEA",
";	c #ED2D2D",
">	c #FFCECE",
",	c #D01010",
"'	c #FFC9C9",
"                ",
"                ",
"    .+    +.    ",
"   @#$+  +$#@   ",
"  .#%%$++$%%#&  ",
"  *=%%%$$%%%=*  ",
"   *=%%%%%%=*   ",
"    *=%%%%=*    ",
"    +$%%%%$+    ",
"   +$%%%%%%$-   ",
"  *;%%%==%%%=*  ",
"  >,%%=**=%%,>  ",
"   ',=*  *=,'   ",
"    >*    *>    ",
"                ",
"                "};
