/* XPM */
static char * plan_ok_xpm[] = {
"16 16 53 1",
" 	c None",
".	c #FEFFFE",
"+	c #EEFFEE",
"@	c #C7F1C7",
"#	c #C5EFC5",
"$	c #DDFADD",
"%	c #FDFFFD",
"&	c #F4FFF4",
"*	c #8DD98D",
"=	c #239A23",
"-	c #0A8A0A",
";	c #098909",
">	c #189318",
",	c #58BC58",
"'	c #DFFCDF",
")	c #FBFFFB",
"!	c #49B549",
"~	c #008000",
"{	c #159515",
"]	c #D6F9D6",
"^	c #9CE19C",
"/	c #038303",
"(	c #50B650",
"_	c #F5FFF5",
":	c #F6FFF6",
"<	c #3CB03C",
"[	c #0D8B0D",
"}	c #CCF3CC",
"|	c #E9FFE9",
"1	c #158E15",
"2	c #028202",
"3	c #A5DBA5",
"4	c #F7FFF7",
"5	c #40B440",
"6	c #0E8B0E",
"7	c #D0F4D0",
"8	c #A5E4A5",
"9	c #048404",
"0	c #FCFFFC",
"a	c #54BF54",
"b	c #1C9B1C",
"c	c #DCFCDC",
"d	c #F8FFF8",
"e	c #9CDF9C",
"f	c #2EA42E",
"g	c #0E8E0E",
"h	c #0D8D0D",
"i	c #209920",
"j	c #67C867",
"k	c #E9FDE9",
"l	c #D2FBD2",
"m	c #D0FBD0",
"n	c #E5FEE5",
"                ",
"                ",
"     .+@#$%     ",
"    &*=-;>,'    ",
"   )!~~~~~~{]   ",
"   ^/~~~~~~~(_  ",
"  :<~~~~~~~~[}  ",
"  |1~~~~~~~~23  ",
"  |1~~~~~~~~23  ",
"  45~~~~~~~~67  ",
"   89~~~~~~~,:  ",
"   0a~~~~~~bc   ",
"    defghijk    ",
"      &lmn      ",
"                ",
"                "};
