/* XPM */
static char * plan_up_xpm[] = {
"16 16 65 1",
" 	c None",
".	c #FFF8F8",
"+	c #FFF3F3",
"@	c #FFFEFE",
"#	c #FFDFDF",
"$	c #F1A8A8",
"%	c #F19797",
"&	c #F19292",
"*	c #F18282",
"=	c #F17474",
"-	c #EB6D6D",
";	c #D55656",
">	c #D53F3F",
",	c #E34141",
"'	c #FFEDED",
")	c #FFEFEF",
"!	c #DF4848",
"~	c #C00000",
"{	c #D51D1D",
"]	c #FEEDED",
"^	c #DF4545",
"/	c #D52D2D",
"(	c #FFF2F2",
"_	c #FEE4E4",
":	c #D82C2C",
"<	c #D53737",
"[	c #FFF5F5",
"}	c #F3B2B2",
"|	c #C91313",
"1	c #D54444",
"2	c #FFF9F9",
"3	c #F4B4B4",
"4	c #F6BCBC",
"5	c #C80F0F",
"6	c #EC6D6D",
"7	c #F6B6B6",
"8	c #C80E0E",
"9	c #F17B7B",
"0	c #F9C4C4",
"a	c #D11E1E",
"b	c #C10101",
"c	c #CC1818",
"d	c #DD3A3A",
"e	c #E05F5F",
"f	c #FDD8D8",
"g	c #DB3535",
"h	c #F1A4A4",
"i	c #F7C4C4",
"j	c #CB1919",
"k	c #DF5C5C",
"l	c #FEF2F2",
"m	c #FDE2E2",
"n	c #DB3434",
"o	c #F1B3B3",
"p	c #F8CACA",
"q	c #C81515",
"r	c #E06060",
"s	c #FFF7F7",
"t	c #FEE5E5",
"u	c #FEEAEA",
"v	c #C60F0F",
"w	c #E05C5C",
"x	c #F4B1B1",
"y	c #C81212",
"z	c #FBD0D0",
"            ..+@",
"   #$%&*=-;;>>,'",
"   )!~~~~~~~~~{'",
"    ]^~~~~~~~~/(",
"     _:~~~~~~~<[",
"    @}|~~~~~~~12",
"    3|~~~~~~~~; ",
"   45~~~~~~~~~6 ",
"  78~~~~~~~~~~9 ",
" 0a~~~~~~~bc~~& ",
"+d~~~~~~~befg~h ",
"@ij~~~~~bkl mno ",
"  pq~~~brs   tu ",
"   7v~bws       ",
"    xyel        ",
"    @zl         "};
